<svg width="299" height="65" viewBox="0 0 299 65" fill="none" xmlns="http://www.w3.org/2000/svg">
<rect x="0.5" y="0.5" width="298" height="64" rx="32" fill="#1C1C1C"/>
<rect x="0.5" y="0.5" width="298" height="64" rx="32" stroke="#262626"/>
<rect x="12" y="12" width="139" height="41" rx="20.5" fill="#CAFF33"/>
<path d="M31.4999 38V28.2H33.0119V38H31.4999ZM32.1719 33.828V32.372H37.2259V33.828H32.1719ZM32.1719 29.656V28.2H37.8559V29.656H32.1719ZM42.6567 38.14C41.9381 38.14 41.2941 37.9767 40.7247 37.65C40.1647 37.314 39.7214 36.8613 39.3947 36.292C39.0681 35.7133 38.9047 35.0553 38.9047 34.318C38.9047 33.5807 39.0681 32.9273 39.3947 32.358C39.7214 31.7793 40.1647 31.3267 40.7247 31C41.2941 30.664 41.9381 30.496 42.6567 30.496C43.3661 30.496 44.0007 30.664 44.5607 31C45.1301 31.3267 45.5781 31.7793 45.9047 32.358C46.2314 32.9273 46.3947 33.5807 46.3947 34.318C46.3947 35.0553 46.2314 35.7133 45.9047 36.292C45.5781 36.8613 45.1301 37.314 44.5607 37.65C44.0007 37.9767 43.3661 38.14 42.6567 38.14ZM42.6567 36.824C43.0954 36.824 43.4874 36.7167 43.8327 36.502C44.1781 36.278 44.4487 35.9793 44.6447 35.606C44.8407 35.2233 44.9341 34.794 44.9247 34.318C44.9341 33.8327 44.8407 33.4033 44.6447 33.03C44.4487 32.6473 44.1781 32.3487 43.8327 32.134C43.4874 31.9193 43.0954 31.812 42.6567 31.812C42.2181 31.812 41.8214 31.924 41.4667 32.148C41.1214 32.3627 40.8507 32.6613 40.6547 33.044C40.4587 33.4173 40.3654 33.842 40.3747 34.318C40.3654 34.794 40.4587 35.2233 40.6547 35.606C40.8507 35.9793 41.1214 36.278 41.4667 36.502C41.8214 36.7167 42.2181 36.824 42.6567 36.824ZM47.966 38V30.65H49.422V32.96L49.282 32.4C49.3847 32.0453 49.5573 31.7233 49.8 31.434C50.052 31.1447 50.3367 30.916 50.654 30.748C50.9807 30.58 51.3167 30.496 51.662 30.496C51.8207 30.496 51.97 30.51 52.11 30.538C52.2593 30.566 52.376 30.5987 52.46 30.636L52.082 32.204C51.97 32.1573 51.844 32.12 51.704 32.092C51.5733 32.0547 51.4427 32.036 51.312 32.036C51.06 32.036 50.8173 32.0873 50.584 32.19C50.36 32.2833 50.1593 32.4187 49.982 32.596C49.814 32.764 49.6787 32.9647 49.576 33.198C49.4733 33.422 49.422 33.6693 49.422 33.94V38H47.966ZM57.5363 38V36.6H59.1183V29.6H57.5363V28.2H62.2123V29.6H60.6303V36.6H62.2123V38H57.5363ZM64.2219 38V30.65H65.6639V32.162L65.4119 32.33C65.5052 32.0033 65.6872 31.7047 65.9579 31.434C66.2285 31.154 66.5505 30.93 66.9239 30.762C67.2972 30.5847 67.6799 30.496 68.0719 30.496C68.6319 30.496 69.0985 30.608 69.4719 30.832C69.8452 31.0467 70.1252 31.378 70.3119 31.826C70.4985 32.274 70.5919 32.8387 70.5919 33.52V38H69.1499V33.618C69.1499 33.198 69.0939 32.8527 68.9819 32.582C68.8699 32.302 68.6972 32.1013 68.4639 31.98C68.2305 31.8493 67.9412 31.7933 67.5959 31.812C67.3159 31.812 67.0592 31.8587 66.8259 31.952C66.5925 32.036 66.3872 32.1573 66.2099 32.316C66.0419 32.4747 65.9065 32.6613 65.8039 32.876C65.7105 33.0813 65.6639 33.3053 65.6639 33.548V38H64.9499C64.8285 38 64.7072 38 64.5859 38C64.4645 38 64.3432 38 64.2219 38ZM75.614 38.14C74.942 38.14 74.34 37.9767 73.808 37.65C73.2854 37.314 72.87 36.8613 72.562 36.292C72.254 35.7133 72.1 35.0553 72.1 34.318C72.1 33.5807 72.2494 32.9273 72.548 32.358C72.856 31.7793 73.2714 31.3267 73.794 31C74.3167 30.664 74.9094 30.496 75.572 30.496C75.936 30.496 76.286 30.5567 76.622 30.678C76.9674 30.79 77.2754 30.9487 77.546 31.154C77.8167 31.35 78.0267 31.5693 78.176 31.812C78.3347 32.0453 78.414 32.2833 78.414 32.526L77.994 32.554V27.64H79.436V38H77.994V36.25H78.274C78.274 36.474 78.1994 36.698 78.05 36.922C77.9007 37.1367 77.7 37.3373 77.448 37.524C77.2054 37.7107 76.9207 37.86 76.594 37.972C76.2767 38.084 75.95 38.14 75.614 38.14ZM75.81 36.894C76.2487 36.894 76.636 36.782 76.972 36.558C77.308 36.334 77.5694 36.0307 77.756 35.648C77.952 35.256 78.05 34.8127 78.05 34.318C78.05 33.8233 77.952 33.3847 77.756 33.002C77.5694 32.61 77.308 32.302 76.972 32.078C76.636 31.854 76.2487 31.742 75.81 31.742C75.3714 31.742 74.984 31.854 74.648 32.078C74.312 32.302 74.046 32.61 73.85 33.002C73.6634 33.3847 73.57 33.8233 73.57 34.318C73.57 34.8127 73.6634 35.256 73.85 35.648C74.046 36.0307 74.312 36.334 74.648 36.558C74.984 36.782 75.3714 36.894 75.81 36.894ZM81.6591 38V30.65H83.1011V38H81.6591ZM82.3591 29.026C82.0511 29.026 81.8131 28.9467 81.6451 28.788C81.4771 28.6293 81.3931 28.4053 81.3931 28.116C81.3931 27.8453 81.4771 27.626 81.6451 27.458C81.8224 27.29 82.0604 27.206 82.3591 27.206C82.6671 27.206 82.9051 27.2853 83.0731 27.444C83.2411 27.6027 83.3251 27.8267 83.3251 28.116C83.3251 28.3867 83.2364 28.606 83.0591 28.774C82.8911 28.942 82.6578 29.026 82.3591 29.026ZM87.7256 38L84.6176 30.65H86.1716L88.4116 36.152L88.1456 36.278L90.5396 30.65H92.0236L88.7616 38H87.7256ZM93.581 38V30.65H95.023V38H93.581ZM94.281 29.026C93.973 29.026 93.735 28.9467 93.567 28.788C93.399 28.6293 93.315 28.4053 93.315 28.116C93.315 27.8453 93.399 27.626 93.567 27.458C93.7443 27.29 93.9823 27.206 94.281 27.206C94.589 27.206 94.827 27.2853 94.995 27.444C95.163 27.6027 95.247 27.8267 95.247 28.116C95.247 28.3867 95.1583 28.606 94.981 28.774C94.813 28.942 94.5796 29.026 94.281 29.026ZM100.305 38.14C99.6334 38.14 99.0314 37.9767 98.4994 37.65C97.9768 37.314 97.5614 36.8613 97.2534 36.292C96.9454 35.7133 96.7914 35.0553 96.7914 34.318C96.7914 33.5807 96.9408 32.9273 97.2394 32.358C97.5474 31.7793 97.9628 31.3267 98.4854 31C99.0081 30.664 99.6008 30.496 100.263 30.496C100.627 30.496 100.977 30.5567 101.313 30.678C101.659 30.79 101.967 30.9487 102.237 31.154C102.508 31.35 102.718 31.5693 102.867 31.812C103.026 32.0453 103.105 32.2833 103.105 32.526L102.685 32.554V27.64H104.127V38H102.685V36.25H102.965C102.965 36.474 102.891 36.698 102.741 36.922C102.592 37.1367 102.391 37.3373 102.139 37.524C101.897 37.7107 101.612 37.86 101.285 37.972C100.968 38.084 100.641 38.14 100.305 38.14ZM100.501 36.894C100.94 36.894 101.327 36.782 101.663 36.558C101.999 36.334 102.261 36.0307 102.447 35.648C102.643 35.256 102.741 34.8127 102.741 34.318C102.741 33.8233 102.643 33.3847 102.447 33.002C102.261 32.61 101.999 32.302 101.663 32.078C101.327 31.854 100.94 31.742 100.501 31.742C100.063 31.742 99.6754 31.854 99.3394 32.078C99.0034 32.302 98.7374 32.61 98.5414 33.002C98.3548 33.3847 98.2614 33.8233 98.2614 34.318C98.2614 34.8127 98.3548 35.256 98.5414 35.648C98.7374 36.0307 99.0034 36.334 99.3394 36.558C99.6754 36.782 100.063 36.894 100.501 36.894ZM108.907 38.14C108.385 38.14 107.927 38.0187 107.535 37.776C107.153 37.5333 106.854 37.1927 106.639 36.754C106.434 36.3153 106.331 35.7927 106.331 35.186V30.65H107.773V34.794C107.773 35.2233 107.839 35.5967 107.969 35.914C108.109 36.222 108.305 36.46 108.557 36.628C108.819 36.796 109.131 36.88 109.495 36.88C109.766 36.88 110.013 36.838 110.237 36.754C110.461 36.6607 110.653 36.5347 110.811 36.376C110.979 36.2173 111.11 36.026 111.203 35.802C111.297 35.578 111.343 35.3353 111.343 35.074V30.65H112.785V38H111.343V36.46L111.595 36.292C111.483 36.6373 111.292 36.95 111.021 37.23C110.76 37.51 110.447 37.734 110.083 37.902C109.719 38.0607 109.327 38.14 108.907 38.14ZM117.636 38.14C117.029 38.14 116.474 37.972 115.97 37.636C115.475 37.3 115.078 36.8427 114.78 36.264C114.481 35.6853 114.332 35.032 114.332 34.304C114.332 33.5667 114.481 32.9133 114.78 32.344C115.088 31.7653 115.498 31.3127 116.012 30.986C116.534 30.6593 117.118 30.496 117.762 30.496C118.144 30.496 118.494 30.552 118.812 30.664C119.129 30.776 119.404 30.9347 119.638 31.14C119.88 31.336 120.076 31.5647 120.226 31.826C120.384 32.0873 120.482 32.3673 120.52 32.666L120.198 32.554V30.65H121.654V38H120.198V36.25L120.534 36.152C120.478 36.404 120.361 36.6513 120.184 36.894C120.016 37.1273 119.796 37.3373 119.526 37.524C119.264 37.7107 118.97 37.86 118.644 37.972C118.326 38.084 117.99 38.14 117.636 38.14ZM118.014 36.81C118.452 36.81 118.84 36.7027 119.176 36.488C119.512 36.2733 119.773 35.9793 119.96 35.606C120.156 35.2233 120.254 34.7893 120.254 34.304C120.254 33.828 120.156 33.4033 119.96 33.03C119.773 32.6567 119.512 32.3627 119.176 32.148C118.84 31.9333 118.452 31.826 118.014 31.826C117.584 31.826 117.202 31.9333 116.866 32.148C116.539 32.3627 116.278 32.6567 116.082 33.03C115.895 33.4033 115.802 33.828 115.802 34.304C115.802 34.7893 115.895 35.2233 116.082 35.606C116.278 35.9793 116.539 36.2733 116.866 36.488C117.202 36.7027 117.584 36.81 118.014 36.81ZM123.695 38V27.64H125.137V38H123.695ZM129.631 38.14C129.015 38.14 128.46 38.0327 127.965 37.818C127.47 37.6033 127.06 37.286 126.733 36.866L127.713 36.026C127.993 36.3527 128.296 36.5907 128.623 36.74C128.959 36.88 129.337 36.95 129.757 36.95C129.925 36.95 130.079 36.9313 130.219 36.894C130.368 36.8473 130.494 36.782 130.597 36.698C130.709 36.614 130.793 36.516 130.849 36.404C130.905 36.2827 130.933 36.152 130.933 36.012C130.933 35.7693 130.844 35.5733 130.667 35.424C130.574 35.3587 130.424 35.2887 130.219 35.214C130.023 35.13 129.766 35.046 129.449 34.962C128.908 34.822 128.464 34.6633 128.119 34.486C127.774 34.3087 127.508 34.108 127.321 33.884C127.181 33.7067 127.078 33.5153 127.013 33.31C126.948 33.0953 126.915 32.862 126.915 32.61C126.915 32.302 126.98 32.022 127.111 31.77C127.251 31.5087 127.438 31.2847 127.671 31.098C127.914 30.902 128.194 30.7527 128.511 30.65C128.838 30.5473 129.183 30.496 129.547 30.496C129.892 30.496 130.233 30.5427 130.569 30.636C130.914 30.7293 131.232 30.8647 131.521 31.042C131.81 31.2193 132.053 31.4293 132.249 31.672L131.423 32.582C131.246 32.4047 131.05 32.2507 130.835 32.12C130.63 31.98 130.42 31.8727 130.205 31.798C129.99 31.7233 129.794 31.686 129.617 31.686C129.421 31.686 129.244 31.7047 129.085 31.742C128.926 31.7793 128.791 31.8353 128.679 31.91C128.576 31.9847 128.497 32.078 128.441 32.19C128.385 32.302 128.357 32.428 128.357 32.568C128.366 32.6893 128.394 32.806 128.441 32.918C128.497 33.0207 128.572 33.1093 128.665 33.184C128.768 33.2587 128.922 33.338 129.127 33.422C129.332 33.506 129.594 33.5853 129.911 33.66C130.378 33.7813 130.76 33.9167 131.059 34.066C131.367 34.206 131.61 34.3693 131.787 34.556C131.974 34.7333 132.104 34.9387 132.179 35.172C132.254 35.4053 132.291 35.6667 132.291 35.956C132.291 36.376 132.17 36.754 131.927 37.09C131.694 37.4167 131.376 37.6733 130.975 37.86C130.574 38.0467 130.126 38.14 129.631 38.14Z" fill="#1C1C1C"/>
<path d="M170.456 38V28.2H171.968V38H170.456ZM171.128 33.828V32.372H176.182V33.828H171.128ZM171.128 29.656V28.2H176.812V29.656H171.128ZM181.613 38.14C180.894 38.14 180.25 37.9767 179.681 37.65C179.121 37.314 178.677 36.8613 178.351 36.292C178.024 35.7133 177.861 35.0553 177.861 34.318C177.861 33.5807 178.024 32.9273 178.351 32.358C178.677 31.7793 179.121 31.3267 179.681 31C180.25 30.664 180.894 30.496 181.613 30.496C182.322 30.496 182.957 30.664 183.517 31C184.086 31.3267 184.534 31.7793 184.861 32.358C185.187 32.9273 185.351 33.5807 185.351 34.318C185.351 35.0553 185.187 35.7133 184.861 36.292C184.534 36.8613 184.086 37.314 183.517 37.65C182.957 37.9767 182.322 38.14 181.613 38.14ZM181.613 36.824C182.051 36.824 182.443 36.7167 182.789 36.502C183.134 36.278 183.405 35.9793 183.601 35.606C183.797 35.2233 183.89 34.794 183.881 34.318C183.89 33.8327 183.797 33.4033 183.601 33.03C183.405 32.6473 183.134 32.3487 182.789 32.134C182.443 31.9193 182.051 31.812 181.613 31.812C181.174 31.812 180.777 31.924 180.423 32.148C180.077 32.3627 179.807 32.6613 179.611 33.044C179.415 33.4173 179.321 33.842 179.331 34.318C179.321 34.794 179.415 35.2233 179.611 35.606C179.807 35.9793 180.077 36.278 180.423 36.502C180.777 36.7167 181.174 36.824 181.613 36.824ZM186.922 38V30.65H188.378V32.96L188.238 32.4C188.341 32.0453 188.513 31.7233 188.756 31.434C189.008 31.1447 189.293 30.916 189.61 30.748C189.937 30.58 190.273 30.496 190.618 30.496C190.777 30.496 190.926 30.51 191.066 30.538C191.215 30.566 191.332 30.5987 191.416 30.636L191.038 32.204C190.926 32.1573 190.8 32.12 190.66 32.092C190.529 32.0547 190.399 32.036 190.268 32.036C190.016 32.036 189.773 32.0873 189.54 32.19C189.316 32.2833 189.115 32.4187 188.938 32.596C188.77 32.764 188.635 32.9647 188.532 33.198C188.429 33.422 188.378 33.6693 188.378 33.94V38H186.922ZM196.856 38V28.2H200.944C201.57 28.2 202.097 28.2933 202.526 28.48C202.956 28.6667 203.278 28.9467 203.492 29.32C203.716 29.684 203.828 30.132 203.828 30.664C203.828 31.196 203.679 31.6487 203.38 32.022C203.091 32.3953 202.685 32.652 202.162 32.792V32.512C202.601 32.6053 202.984 32.7733 203.31 33.016C203.637 33.2493 203.889 33.5433 204.066 33.898C204.253 34.2527 204.346 34.6587 204.346 35.116C204.346 35.5827 204.272 35.998 204.122 36.362C203.982 36.7167 203.768 37.0153 203.478 37.258C203.198 37.5007 202.858 37.6873 202.456 37.818C202.055 37.9393 201.598 38 201.084 38H196.856ZM198.368 36.544H201C201.383 36.544 201.705 36.488 201.966 36.376C202.237 36.264 202.442 36.1007 202.582 35.886C202.732 35.662 202.806 35.396 202.806 35.088C202.806 34.7987 202.727 34.5513 202.568 34.346C202.419 34.1407 202.204 33.9867 201.924 33.884C201.644 33.772 201.313 33.716 200.93 33.716H198.368V36.544ZM198.368 32.26H200.86C201.14 32.26 201.388 32.204 201.602 32.092C201.826 31.98 201.999 31.826 202.12 31.63C202.251 31.434 202.316 31.21 202.316 30.958C202.316 30.538 202.176 30.216 201.896 29.992C201.616 29.768 201.215 29.656 200.692 29.656H198.368V32.26ZM208.598 38.14C208.075 38.14 207.618 38.0187 207.226 37.776C206.843 37.5333 206.544 37.1927 206.33 36.754C206.124 36.3153 206.022 35.7927 206.022 35.186V30.65H207.464V34.794C207.464 35.2233 207.529 35.5967 207.66 35.914C207.8 36.222 207.996 36.46 208.248 36.628C208.509 36.796 208.822 36.88 209.186 36.88C209.456 36.88 209.704 36.838 209.928 36.754C210.152 36.6607 210.343 36.5347 210.502 36.376C210.67 36.2173 210.8 36.026 210.894 35.802C210.987 35.578 211.034 35.3353 211.034 35.074V30.65H212.476V38H211.034V36.46L211.286 36.292C211.174 36.6373 210.982 36.95 210.712 37.23C210.45 37.51 210.138 37.734 209.774 37.902C209.41 38.0607 209.018 38.14 208.598 38.14ZM216.948 38.14C216.332 38.14 215.777 38.0327 215.282 37.818C214.788 37.6033 214.377 37.286 214.05 36.866L215.03 36.026C215.31 36.3527 215.614 36.5907 215.94 36.74C216.276 36.88 216.654 36.95 217.074 36.95C217.242 36.95 217.396 36.9313 217.536 36.894C217.686 36.8473 217.812 36.782 217.914 36.698C218.026 36.614 218.11 36.516 218.166 36.404C218.222 36.2827 218.25 36.152 218.25 36.012C218.25 35.7693 218.162 35.5733 217.984 35.424C217.891 35.3587 217.742 35.2887 217.536 35.214C217.34 35.13 217.084 35.046 216.766 34.962C216.225 34.822 215.782 34.6633 215.436 34.486C215.091 34.3087 214.825 34.108 214.638 33.884C214.498 33.7067 214.396 33.5153 214.33 33.31C214.265 33.0953 214.232 32.862 214.232 32.61C214.232 32.302 214.298 32.022 214.428 31.77C214.568 31.5087 214.755 31.2847 214.988 31.098C215.231 30.902 215.511 30.7527 215.828 30.65C216.155 30.5473 216.5 30.496 216.864 30.496C217.21 30.496 217.55 30.5427 217.886 30.636C218.232 30.7293 218.549 30.8647 218.838 31.042C219.128 31.2193 219.37 31.4293 219.566 31.672L218.74 32.582C218.563 32.4047 218.367 32.2507 218.152 32.12C217.947 31.98 217.737 31.8727 217.522 31.798C217.308 31.7233 217.112 31.686 216.934 31.686C216.738 31.686 216.561 31.7047 216.402 31.742C216.244 31.7793 216.108 31.8353 215.996 31.91C215.894 31.9847 215.814 32.078 215.758 32.19C215.702 32.302 215.674 32.428 215.674 32.568C215.684 32.6893 215.712 32.806 215.758 32.918C215.814 33.0207 215.889 33.1093 215.982 33.184C216.085 33.2587 216.239 33.338 216.444 33.422C216.65 33.506 216.911 33.5853 217.228 33.66C217.695 33.7813 218.078 33.9167 218.376 34.066C218.684 34.206 218.927 34.3693 219.104 34.556C219.291 34.7333 219.422 34.9387 219.496 35.172C219.571 35.4053 219.608 35.6667 219.608 35.956C219.608 36.376 219.487 36.754 219.244 37.09C219.011 37.4167 218.694 37.6733 218.292 37.86C217.891 38.0467 217.443 38.14 216.948 38.14ZM221.435 38V30.65H222.877V38H221.435ZM222.135 29.026C221.827 29.026 221.589 28.9467 221.421 28.788C221.253 28.6293 221.169 28.4053 221.169 28.116C221.169 27.8453 221.253 27.626 221.421 27.458C221.599 27.29 221.837 27.206 222.135 27.206C222.443 27.206 222.681 27.2853 222.849 27.444C223.017 27.6027 223.101 27.8267 223.101 28.116C223.101 28.3867 223.013 28.606 222.835 28.774C222.667 28.942 222.434 29.026 222.135 29.026ZM225.094 38V30.65H226.536V32.162L226.284 32.33C226.377 32.0033 226.559 31.7047 226.83 31.434C227.101 31.154 227.423 30.93 227.796 30.762C228.169 30.5847 228.552 30.496 228.944 30.496C229.504 30.496 229.971 30.608 230.344 30.832C230.717 31.0467 230.997 31.378 231.184 31.826C231.371 32.274 231.464 32.8387 231.464 33.52V38H230.022V33.618C230.022 33.198 229.966 32.8527 229.854 32.582C229.742 32.302 229.569 32.1013 229.336 31.98C229.103 31.8493 228.813 31.7933 228.468 31.812C228.188 31.812 227.931 31.8587 227.698 31.952C227.465 32.036 227.259 32.1573 227.082 32.316C226.914 32.4747 226.779 32.6613 226.676 32.876C226.583 33.0813 226.536 33.3053 226.536 33.548V38H225.822C225.701 38 225.579 38 225.458 38C225.337 38 225.215 38 225.094 38ZM236.85 38.14C236.094 38.14 235.422 37.9813 234.834 37.664C234.255 37.3373 233.798 36.894 233.462 36.334C233.135 35.774 232.972 35.13 232.972 34.402C232.972 33.8233 233.065 33.296 233.252 32.82C233.439 32.344 233.695 31.9333 234.022 31.588C234.358 31.2333 234.755 30.9627 235.212 30.776C235.679 30.58 236.183 30.482 236.724 30.482C237.2 30.482 237.643 30.5753 238.054 30.762C238.465 30.9393 238.819 31.1867 239.118 31.504C239.426 31.8213 239.659 32.1993 239.818 32.638C239.986 33.0673 240.065 33.5387 240.056 34.052L240.042 34.668H234.036L233.714 33.52H238.796L238.586 33.758V33.422C238.558 33.114 238.455 32.8387 238.278 32.596C238.101 32.3533 237.877 32.162 237.606 32.022C237.335 31.882 237.041 31.812 236.724 31.812C236.22 31.812 235.795 31.91 235.45 32.106C235.105 32.2927 234.843 32.5727 234.666 32.946C234.489 33.31 234.4 33.7627 234.4 34.304C234.4 34.8173 234.507 35.2653 234.722 35.648C234.937 36.0213 235.24 36.3107 235.632 36.516C236.024 36.7213 236.477 36.824 236.99 36.824C237.354 36.824 237.69 36.7633 237.998 36.642C238.315 36.5207 238.656 36.3013 239.02 35.984L239.748 37.006C239.524 37.23 239.249 37.426 238.922 37.594C238.605 37.762 238.264 37.8973 237.9 38C237.545 38.0933 237.195 38.14 236.85 38.14ZM244.073 38.14C243.457 38.14 242.902 38.0327 242.407 37.818C241.913 37.6033 241.502 37.286 241.175 36.866L242.155 36.026C242.435 36.3527 242.739 36.5907 243.065 36.74C243.401 36.88 243.779 36.95 244.199 36.95C244.367 36.95 244.521 36.9313 244.661 36.894C244.811 36.8473 244.937 36.782 245.039 36.698C245.151 36.614 245.235 36.516 245.291 36.404C245.347 36.2827 245.375 36.152 245.375 36.012C245.375 35.7693 245.287 35.5733 245.109 35.424C245.016 35.3587 244.867 35.2887 244.661 35.214C244.465 35.13 244.209 35.046 243.891 34.962C243.35 34.822 242.907 34.6633 242.561 34.486C242.216 34.3087 241.95 34.108 241.763 33.884C241.623 33.7067 241.521 33.5153 241.455 33.31C241.39 33.0953 241.357 32.862 241.357 32.61C241.357 32.302 241.423 32.022 241.553 31.77C241.693 31.5087 241.88 31.2847 242.113 31.098C242.356 30.902 242.636 30.7527 242.953 30.65C243.28 30.5473 243.625 30.496 243.989 30.496C244.335 30.496 244.675 30.5427 245.011 30.636C245.357 30.7293 245.674 30.8647 245.963 31.042C246.253 31.2193 246.495 31.4293 246.691 31.672L245.865 32.582C245.688 32.4047 245.492 32.2507 245.277 32.12C245.072 31.98 244.862 31.8727 244.647 31.798C244.433 31.7233 244.237 31.686 244.059 31.686C243.863 31.686 243.686 31.7047 243.527 31.742C243.369 31.7793 243.233 31.8353 243.121 31.91C243.019 31.9847 242.939 32.078 242.883 32.19C242.827 32.302 242.799 32.428 242.799 32.568C242.809 32.6893 242.837 32.806 242.883 32.918C242.939 33.0207 243.014 33.1093 243.107 33.184C243.21 33.2587 243.364 33.338 243.569 33.422C243.775 33.506 244.036 33.5853 244.353 33.66C244.82 33.7813 245.203 33.9167 245.501 34.066C245.809 34.206 246.052 34.3693 246.229 34.556C246.416 34.7333 246.547 34.9387 246.621 35.172C246.696 35.4053 246.733 35.6667 246.733 35.956C246.733 36.376 246.612 36.754 246.369 37.09C246.136 37.4167 245.819 37.6733 245.417 37.86C245.016 38.0467 244.568 38.14 244.073 38.14ZM250.772 38.14C250.156 38.14 249.601 38.0327 249.106 37.818C248.612 37.6033 248.201 37.286 247.874 36.866L248.854 36.026C249.134 36.3527 249.438 36.5907 249.764 36.74C250.1 36.88 250.478 36.95 250.898 36.95C251.066 36.95 251.22 36.9313 251.36 36.894C251.51 36.8473 251.636 36.782 251.738 36.698C251.85 36.614 251.934 36.516 251.99 36.404C252.046 36.2827 252.074 36.152 252.074 36.012C252.074 35.7693 251.986 35.5733 251.808 35.424C251.715 35.3587 251.566 35.2887 251.36 35.214C251.164 35.13 250.908 35.046 250.59 34.962C250.049 34.822 249.606 34.6633 249.26 34.486C248.915 34.3087 248.649 34.108 248.462 33.884C248.322 33.7067 248.22 33.5153 248.154 33.31C248.089 33.0953 248.056 32.862 248.056 32.61C248.056 32.302 248.122 32.022 248.252 31.77C248.392 31.5087 248.579 31.2847 248.812 31.098C249.055 30.902 249.335 30.7527 249.652 30.65C249.979 30.5473 250.324 30.496 250.688 30.496C251.034 30.496 251.374 30.5427 251.71 30.636C252.056 30.7293 252.373 30.8647 252.662 31.042C252.952 31.2193 253.194 31.4293 253.39 31.672L252.564 32.582C252.387 32.4047 252.191 32.2507 251.976 32.12C251.771 31.98 251.561 31.8727 251.346 31.798C251.132 31.7233 250.936 31.686 250.758 31.686C250.562 31.686 250.385 31.7047 250.226 31.742C250.068 31.7793 249.932 31.8353 249.82 31.91C249.718 31.9847 249.638 32.078 249.582 32.19C249.526 32.302 249.498 32.428 249.498 32.568C249.508 32.6893 249.536 32.806 249.582 32.918C249.638 33.0207 249.713 33.1093 249.806 33.184C249.909 33.2587 250.063 33.338 250.268 33.422C250.474 33.506 250.735 33.5853 251.052 33.66C251.519 33.7813 251.902 33.9167 252.2 34.066C252.508 34.206 252.751 34.3693 252.928 34.556C253.115 34.7333 253.246 34.9387 253.32 35.172C253.395 35.4053 253.432 35.6667 253.432 35.956C253.432 36.376 253.311 36.754 253.068 37.09C252.835 37.4167 252.518 37.6733 252.116 37.86C251.715 38.0467 251.267 38.14 250.772 38.14ZM258.452 38.14C257.696 38.14 257.024 37.9813 256.436 37.664C255.857 37.3373 255.4 36.894 255.064 36.334C254.737 35.774 254.574 35.13 254.574 34.402C254.574 33.8233 254.667 33.296 254.854 32.82C255.04 32.344 255.297 31.9333 255.624 31.588C255.96 31.2333 256.356 30.9627 256.814 30.776C257.28 30.58 257.784 30.482 258.326 30.482C258.802 30.482 259.245 30.5753 259.656 30.762C260.066 30.9393 260.421 31.1867 260.72 31.504C261.028 31.8213 261.261 32.1993 261.42 32.638C261.588 33.0673 261.667 33.5387 261.658 34.052L261.644 34.668H255.638L255.316 33.52H260.398L260.188 33.758V33.422C260.16 33.114 260.057 32.8387 259.88 32.596C259.702 32.3533 259.478 32.162 259.208 32.022C258.937 31.882 258.643 31.812 258.326 31.812C257.822 31.812 257.397 31.91 257.052 32.106C256.706 32.2927 256.445 32.5727 256.268 32.946C256.09 33.31 256.002 33.7627 256.002 34.304C256.002 34.8173 256.109 35.2653 256.324 35.648C256.538 36.0213 256.842 36.3107 257.234 36.516C257.626 36.7213 258.078 36.824 258.592 36.824C258.956 36.824 259.292 36.7633 259.6 36.642C259.917 36.5207 260.258 36.3013 260.622 35.984L261.35 37.006C261.126 37.23 260.85 37.426 260.524 37.594C260.206 37.762 259.866 37.8973 259.502 38C259.147 38.0933 258.797 38.14 258.452 38.14ZM265.675 38.14C265.059 38.14 264.503 38.0327 264.009 37.818C263.514 37.6033 263.103 37.286 262.777 36.866L263.757 36.026C264.037 36.3527 264.34 36.5907 264.667 36.74C265.003 36.88 265.381 36.95 265.801 36.95C265.969 36.95 266.123 36.9313 266.263 36.894C266.412 36.8473 266.538 36.782 266.641 36.698C266.753 36.614 266.837 36.516 266.893 36.404C266.949 36.2827 266.977 36.152 266.977 36.012C266.977 35.7693 266.888 35.5733 266.711 35.424C266.617 35.3587 266.468 35.2887 266.263 35.214C266.067 35.13 265.81 35.046 265.493 34.962C264.951 34.822 264.508 34.6633 264.163 34.486C263.817 34.3087 263.551 34.108 263.365 33.884C263.225 33.7067 263.122 33.5153 263.057 33.31C262.991 33.0953 262.959 32.862 262.959 32.61C262.959 32.302 263.024 32.022 263.155 31.77C263.295 31.5087 263.481 31.2847 263.715 31.098C263.957 30.902 264.237 30.7527 264.555 30.65C264.881 30.5473 265.227 30.496 265.591 30.496C265.936 30.496 266.277 30.5427 266.613 30.636C266.958 30.7293 267.275 30.8647 267.565 31.042C267.854 31.2193 268.097 31.4293 268.293 31.672L267.467 32.582C267.289 32.4047 267.093 32.2507 266.879 32.12C266.673 31.98 266.463 31.8727 266.249 31.798C266.034 31.7233 265.838 31.686 265.661 31.686C265.465 31.686 265.287 31.7047 265.129 31.742C264.97 31.7793 264.835 31.8353 264.723 31.91C264.62 31.9847 264.541 32.078 264.485 32.19C264.429 32.302 264.401 32.428 264.401 32.568C264.41 32.6893 264.438 32.806 264.485 32.918C264.541 33.0207 264.615 33.1093 264.709 33.184C264.811 33.2587 264.965 33.338 265.171 33.422C265.376 33.506 265.637 33.5853 265.955 33.66C266.421 33.7813 266.804 33.9167 267.103 34.066C267.411 34.206 267.653 34.3693 267.831 34.556C268.017 34.7333 268.148 34.9387 268.223 35.172C268.297 35.4053 268.335 35.6667 268.335 35.956C268.335 36.376 268.213 36.754 267.971 37.09C267.737 37.4167 267.42 37.6733 267.019 37.86C266.617 38.0467 266.169 38.14 265.675 38.14Z" fill="white"/>
</svg>
