<svg width="44" height="44" viewBox="0 0 44 44" fill="none" xmlns="http://www.w3.org/2000/svg">
<path d="M15.731 35.5375C15.7309 36.3658 15.0593 37.0374 14.231 37.0375H5.03369C4.2053 37.0375 3.53375 36.3659 3.53369 35.5375V28.392C3.53369 25.9879 3.9729 23.4976 4.84326 20.9242L4.84424 20.9213C5.73936 18.3255 6.95045 15.8783 8.47705 13.5804L8.47803 13.5795C9.87467 11.4886 11.424 9.68616 13.1284 8.17712C13.6363 7.72746 14.3736 7.6984 14.9224 8.06384L20.0142 11.4564C20.6987 11.9126 20.8809 12.8262 20.4575 13.515C19.1727 15.605 18.0773 17.7763 17.1724 20.0297C16.188 22.5183 15.7056 25.2756 15.731 28.307V35.5375ZM35.4429 35.5375C35.4428 36.3657 34.7711 37.0373 33.9429 37.0375H24.7456C23.9172 37.0375 23.2457 36.3659 23.2456 35.5375V28.392C23.2456 25.9879 23.6848 23.4976 24.5552 20.9242L24.5562 20.9213C25.4513 18.3255 26.6623 15.8783 28.189 13.5804L28.1899 13.5795C29.5866 11.4886 31.1359 9.68617 32.8403 8.17712C33.3483 7.72749 34.0856 7.69831 34.6343 8.06384L39.7261 11.4564C40.4107 11.9126 40.5929 12.8262 40.1694 13.515C38.8846 15.605 37.7892 17.7763 36.8843 20.0297C35.8999 22.5183 35.4175 25.2756 35.4429 28.307V35.5375Z" fill="url(#paint0_linear_108_2662)" stroke="#CAFF33"/>
<defs>
<linearGradient id="paint0_linear_108_2662" x1="22.1513" y1="8.06677" x2="22.1513" y2="36.5374" gradientUnits="userSpaceOnUse">
<stop stop-color="#CAFF33"/>
<stop offset="1" stop-color="#191919"/>
</linearGradient>
</defs>
</svg>
